<svg width="14" height="14" fill="none" xmlns="http://www.w3.org/2000/svg"><style>@media (prefers-color-scheme:dark){path{fill:#f0f0f0}}</style><path d="M11.823 5.204c0 .36-.116.636-.348.828-.224.184-.48.276-.768.276-.288 0-.548-.092-.78-.276-.224-.192-.336-.468-.336-.828 0-.36.112-.632.336-.816.232-.192.492-.288.78-.288.288 0 .544.096.768.288.232.184.348.456.348.816zm-.06 3.384c.016.192.024.328.024.408a2.1 2.1 0 01.012.204c0 .24-.024.496-.072.768-.04.264-.1.532-.18.804a6.717 6.717 0 01-.708 1.596l-1.404-.348a8.515 8.515 0 00.492-2.64c0-.048-.004-.108-.012-.18 0-.08-.004-.16-.012-.24 0-.08-.004-.156-.012-.228v-.144h1.872zM4.772 10.52c-.456 0-.912-.016-1.368-.048A9.072 9.072 0 012 10.28V2.216a11.06 11.06 0 011.26-.156c.456-.04.88-.06 1.272-.06.528 0 1.012.04 1.452.12.448.072.832.2 1.152.384.32.184.568.428.744.732.184.296.276.664.276 1.104 0 .664-.32 1.188-.96 1.572.528.2.888.472 1.08.816.192.344.288.732.288 1.164 0 .872-.32 1.528-.96 1.968-.632.44-1.576.66-2.832.66zm-.948-3.732v2.148c.136.016.284.028.444.036.16.008.336.012.528.012.56 0 1.012-.08 1.356-.24.344-.16.516-.456.516-.888 0-.384-.144-.656-.432-.816-.288-.168-.7-.252-1.236-.252H3.824zm0-1.428h.912c.576 0 .988-.072 1.236-.216.248-.152.372-.392.372-.72 0-.336-.128-.572-.384-.708s-.632-.204-1.128-.204c-.16 0-.332.004-.516.012-.184 0-.348.008-.492.024V5.36z" fill="#000"/></svg>