<?xml version="1.0" standalone="no"?>
<!DOCTYPE svg PUBLIC "-//W3C//DTD SVG 20010904//EN"
 "http://www.w3.org/TR/2001/REC-SVG-20010904/DTD/svg10.dtd">
<svg version="1.0" xmlns="http://www.w3.org/2000/svg"
 width="700.000000pt" height="700.000000pt" viewBox="0 0 700.000000 700.000000"
 preserveAspectRatio="xMidYMid meet">
<metadata>
Created by potrace 1.14, written by Peter Selinger 2001-2017
</metadata>
<g transform="translate(0.000000,700.000000) scale(0.100000,-0.100000)"
fill="#000000" stroke="none">
<path d="M1978 5995 c-2 -1 -57 -6 -123 -9 -66 -4 -133 -8 -150 -10 -16 -3
-74 -7 -127 -11 -54 -3 -106 -8 -117 -10 -10 -2 -57 -6 -102 -10 -46 -4 -86
-8 -89 -10 -3 -2 -30 -6 -60 -10 -30 -4 -66 -9 -80 -10 -42 -6 -94 -15 -112
-21 -17 -5 -18 -110 -18 -2019 l0 -2013 48 -11 c26 -5 61 -13 77 -16 17 -3 41
-8 55 -10 14 -3 45 -8 70 -11 25 -3 53 -7 62 -10 9 -3 41 -7 70 -10 29 -3 64
-7 77 -9 13 -2 58 -7 100 -10 42 -3 99 -8 126 -10 327 -27 1006 -27 1176 0 13
2 51 6 84 10 32 4 68 9 79 11 11 2 38 6 61 10 90 13 316 77 422 119 514 206
770 582 774 1135 0 69 -7 166 -16 215 -40 216 -118 389 -227 506 -84 90 -217
179 -359 239 l-77 33 77 54 c87 62 174 145 231 218 39 52 100 161 114 205 5
14 10 30 12 35 23 62 37 157 37 260 1 113 -8 249 -18 264 -2 4 -6 18 -8 32
-12 66 -32 122 -73 204 -123 249 -328 425 -620 530 -81 30 -182 60 -237 71
-10 2 -26 6 -35 8 -9 3 -33 8 -52 11 -19 2 -46 7 -60 9 -46 9 -88 14 -315 42
-51 6 -671 15 -677 9z m633 -759 c40 -4 96 -12 123 -17 28 -6 62 -12 76 -15
45 -8 94 -26 152 -55 147 -74 210 -187 207 -371 -4 -230 -118 -359 -369 -417
-138 -31 -149 -32 -527 -38 l-363 -5 0 454 c0 356 3 455 13 456 6 1 91 4 187
7 96 4 176 7 177 8 4 5 261 -1 324 -7z m104 -1639 c364 -50 544 -162 600 -372
16 -63 22 -190 11 -263 -36 -235 -230 -377 -581 -428 -22 -3 -60 -10 -85 -14
-47 -9 -640 -6 -675 3 -11 3 -32 6 -47 6 l-28 1 0 533 c0 294 2 536 5 539 6 5
756 1 800 -5z"/>
<path d="M5255 4943 c-115 -25 -237 -87 -315 -159 -118 -109 -167 -299 -132
-507 28 -169 120 -292 274 -366 240 -114 506 -74 684 103 95 95 138 204 143
361 3 113 -18 216 -60 296 -66 124 -241 245 -389 268 -65 11 -167 13 -205 4z"/>
<path d="M4947 2695 c-3 -5 -3 -28 -1 -50 6 -85 16 -302 16 -350 0 -63 -12
-287 -17 -295 -1 -3 -6 -35 -9 -72 -4 -37 -9 -77 -11 -90 -2 -13 -9 -57 -15
-98 -13 -87 -39 -221 -44 -229 -2 -3 -7 -22 -10 -41 -8 -49 -80 -310 -111
-399 -14 -41 -23 -76 -20 -79 5 -5 675 -172 690 -172 6 0 21 19 34 43 130 234
215 422 285 628 43 127 108 376 120 464 6 42 14 92 22 135 25 145 25 592 -1
608 -17 12 -924 9 -928 -3z"/>
</g>
</svg>
